<svg id="Capa_1" data-name="Capa 1" xmlns="http://www.w3.org/2000/svg" height="54px" viewBox="0 0 24 24" width="54px" fill="#8cccce"><title>iconos</title><path d="M0,0H24V24H0Z" fill="none"/><path d="M15.4,7.2,7.8,14.8A7.6,7.6,0,0,1,7,13.7,9.4,9.4,0,0,1,5.4,7.6a8.5,8.5,0,0,1,.4-2.2c0-.1.1-.2.2-.3a10.6,10.6,0,0,1,6.8.4A10.6,10.6,0,0,1,15.4,7.2Z"/><path d="M20.5,20.7l-.2-.2-8.6-8.6-.2-.2a.5.5,0,0,1,.1-.6.3.3,0,0,1,.5,0,.2.2,0,0,1,.2.2c3.1,3,6.2,6.1,9.2,9.2a1.3,1.3,0,0,0,.8.3h.6a.5.5,0,0,1,.5.4c0,.3-.2.4-.5.5H1c-.3-.1-.4-.2-.4-.5a.4.4,0,0,1,.4-.4H20.5Z"/><path d="M4.7,5.8a11.1,11.1,0,0,0,2.4,9.6l-2,2A8.9,8.9,0,0,1,4.7,5.8Z"/><path d="M17.9,4.7,16.2,6.4H16A10.8,10.8,0,0,0,6.5,4.1,8.9,8.9,0,0,1,17.9,4.7Z"/></svg>
