<svg id="Capa_1" data-name="Capa 1" xmlns="http://www.w3.org/2000/svg" height="54px" viewBox="0 0 24 24" width="54px" fill="#669acc"><title>beach_access_black_24dp</title><path d="M22.4,16.7c-.4-2.2-2.3-3.5-4.8-3.4-.3-1-.6-2-.8-3V9.8c.2-.5.1-.8-.5-1l-1.7-.3a1.6,1.6,0,0,1-.8-.6L12.5,6.1A1.8,1.8,0,0,0,9.4,6L7.2,8.7a1.7,1.7,0,0,0,.5,2.7,26.1,26.1,0,0,1,2.8,1.7.8.8,0,0,1,.4.7V17a1,1,0,0,0,.9,1.2A1.1,1.1,0,0,0,12.9,17c.1-1.3.1-2.5.3-3.8a1.8,1.8,0,0,0-.8-1.7l-2-1.5,1.5-1.8c.7,1.6,2.1,1.6,3.5,1.8h.2c.1.2.4.3.4.5a3.5,3.5,0,0,1,.3,1.1H13.7c0,.6.2.8.8.7h1.1v.2l-.9.9-.8.8a7.6,7.6,0,0,0-.4,1.1l.3.2,2.8-3,.3,1c-2.5,1.6-3.3,3.6-2.3,5.7a4,4,0,0,0,5,2.2A4.1,4.1,0,0,0,22.4,16.7Zm-3.1,3.9a3.3,3.3,0,0,1-4-2,3.2,3.2,0,0,1,1.8-4.1l.6,2.2c0,.2-.2.4-.1.6a1.5,1.5,0,0,0,.4.9,1.3,1.3,0,0,0,.9-.2c.2-.3.2-.9,0-1s-.6-1.8-1-2.6a2.9,2.9,0,0,1,3.5,2.3A3.2,3.2,0,0,1,19.3,20.6Z"/><path d="M15.6,3.5A1.6,1.6,0,0,1,14,5.1a1.6,1.6,0,1,1,0-3.2A1.6,1.6,0,0,1,15.6,3.5Z"/><path d="M10.2,13.6l-.8-.5-1,1.2c-2.3-1.4-4.5-1.2-5.9.6a4.1,4.1,0,0,0,.1,5.4,4.3,4.3,0,0,0,5.5.6c1.9-1.4,2.2-3.5.8-6.2Zm-3.8,7a3.1,3.1,0,0,1-3.6-1.7A3.2,3.2,0,0,1,3.6,15a3.2,3.2,0,0,1,4.1,0L6.3,16.3H5.7a1.2,1.2,0,0,0-1.1.8,1.1,1.1,0,0,0,.5,1.2,1.1,1.1,0,0,0,1.4-.2l.8-.4H8.8A3,3,0,0,1,6.4,20.6ZM9,17H6.7l1.6-1.5Z"/></svg>
