<svg id="Capa_1" data-name="Capa 1" xmlns="http://www.w3.org/2000/svg" height="54px" viewBox="0 0 24 24" width="54px" fill="#000000"><title>iconos</title><path d="M16.8,14l1-2.1h-.5A4.3,4.3,0,0,1,15,9.9H14a1.3,1.3,0,0,1-.2,1.3l-1.9,2.9a1.6,1.6,0,0,1-1.3.8,1.6,1.6,0,0,1-.9-.3,1.6,1.6,0,0,1-.4-2.2l.9-1.4-1.1-.5-.6-.6H7.8a2.8,2.8,0,0,0-1.7.7c-.7-.5-3.1-1.9-3.9.7s1.1,3.3-.4,4.6-.1.2,0,.3a.1.1,0,0,0,.2,0c.7-.2,1.6-.9,2-3s.9-2,1.5-1.9a2.8,2.8,0,0,0-.4,1.3,2.6,2.6,0,0,0,.8,1.9l-1,1.6H4.8c0,.1-.1.3-.1.4L5,21.2a.4.4,0,0,0,.4.4c.3.1.5-.1.6-.4l.5-2.7.8,2.8c0,.2.2.3.5.3a.4.4,0,0,0,.4-.5V17l1.1-1.7h3.9l.8,1.6-.7,4.2a.5.5,0,0,0,.4.5.6.6,0,0,0,.7-.3l1.3-3.4.6,3.4a.7.7,0,0,0,.5.4.6.6,0,0,0,.5-.6Z"/><path d="M12.7,4.5A1.3,1.3,0,0,0,14,3.2a1.3,1.3,0,1,0-2.6,0A1.3,1.3,0,0,0,12.7,4.5Z"/><path d="M21.9,7.3l-2.4-2,.2-1.8c.1-.1,0-.2-.1-.2h-.2l-1.1,1-.7,1.8L16.3,7.9c.4.9.9,1.7,1.5,1.9l1-.3.5-1.1,1.2.5c-1.1,1.2-2.1,1.7-2.9,1.5s-2-2.2-2.2-3.3V6.7a.7.7,0,0,0-.6-.3h-.2l-1.5.5-.5-1.1h0a.9.9,0,0,0,0-.7c-.2-.3-.4-.5-.6-.5h-.1a1,1,0,0,0-1.2.5L9,8.7a.8.8,0,0,0,.4,1.1l1.9.9L9.9,12.8a.8.8,0,0,0,.2,1.2l.5.2a1,1,0,0,0,.7-.4l2-3a.8.8,0,0,0-.4-1.2l-1.5-.7L12,7.3c.3.7.4.9.7.9a8.8,8.8,0,0,0,2.1-.6c.3,1.1,1.1,3.1,2.6,3.5H18c.9,0,2-.7,3.2-2h.3c.3-.1.5-.2.6-.5V8.4A1.1,1.1,0,0,0,21.9,7.3Z"/></svg>
