<svg id="Capa_1" data-name="Capa 1" xmlns="http://www.w3.org/2000/svg" height="54px" viewBox="0 0 24 24" width="54px" fill="#000000"><title>iconos</title><path d="M2.3,20.3A5.4,5.4,0,0,1,3,19l1.2-1.9,2.3-3.8L8.7,9.8l1-1.7.6-.9.3-.4.2-.4a.8.8,0,0,0,0-1.1,13,13,0,0,1-1-1.5c-.3-.5-.5-.9.1-1.3s.8.1,1.1.5a13,13,0,0,0,1,1.5l1-1.4c.3-.5.6-1,1.2-.6s.2.9,0,1.3S13,5.2,13,5.9s.8,1.4,1.2,2.1l7.1,11.5c.3.5.7,1,.3,1.6s-.9.5-1.4.5H17.3a1.3,1.3,0,0,1-1.5-.8l-2.9-4.5q-.9-1.4-1.8,0c-1,1.5-1.9,3-2.8,4.5a1.5,1.5,0,0,1-1.6.8H3.9a1.4,1.4,0,0,1-.9-.1.9.9,0,0,1-.8-.9A.4.4,0,0,1,2.3,20.3Z"/></svg>
