<svg id="Capa_1" data-name="Capa 1" xmlns="http://www.w3.org/2000/svg" height="54px" viewBox="0 0 24 24" width="54px" fill="#000000"><title>iconos</title><path d="M20.1,20.5v-6H13.6v6H12.4V13.3h3.9V6.9H15V4.4H13.5V2.3H12.4V4.4H11V6.9H9.7V20.5H8.6V9.4h-5V20.5H2.2v1.1H21.5V20.5ZM13.7,8.3h1.1V9.4H13.7Zm0,2.5h1.1v1.1H13.7ZM6.6,20.1H5.5V18.9H6.6Zm0-2.7H5.5V16.2H6.6Zm0-2.7H5.5V13.5H6.6Zm0-2.8H5.5V10.8H6.6Zm5.7,0H11.2V10.8h1.1Zm0-2.5H11.2V8.3h1.1Zm.1-3.6h1.1V6.9H12.4Zm3.7,14.7H15V16h1.1Zm2.6,0H17.5V16h1.2Z"/></svg>
