<svg id="Capa_1" data-name="Capa 1" xmlns="http://www.w3.org/2000/svg" height="54px" viewBox="0 0 24 24" width="54px" fill="#669acc"><title>iconos</title><path d="M11.6,7.9h.6l.3,3.8h.9l.4-2.1h.5c0,.7-.1,1.3-.1,2h1.2v-.2l.6-2.8c.1-.5.3-.8.9-.8A2.3,2.3,0,0,0,18.9,6a2.3,2.3,0,0,0-1.1-2.6,2.4,2.4,0,0,0-2.7.1l-.6.5c-.7-.9-1.3-1.7-2.5-1.7S10.2,3.1,9.5,4s-.3-.2-.3-.3a2.5,2.5,0,0,0-3-.3A2.3,2.3,0,0,0,5.1,6,2.4,2.4,0,0,0,7.2,7.9c.3.1.6.4.6.6s.5,2.1.7,3.2H9.8c-.2-1.9-.2-1.9.4-2l.4,2h1ZM4.2,10.7A1.8,1.8,0,0,0,2.3,13a2.5,2.5,0,0,0,3.4,1.9,1.4,1.4,0,0,1,1.5.3l8.5,6,.7.5c.3,0,.7-.1.8-.3s.1-.5,0-.8-.4-.3-.7-.4l-9-5.8a1.1,1.1,0,0,1-.6-1.1A2.6,2.6,0,0,0,4.2,10.7Zm8.5,6.1c.6.7,1,.6,1.6.2s1.8-1.3,2.6-1.9a1.1,1.1,0,0,1,1.3-.2,2.6,2.6,0,0,0,3.5-1.8,2,2,0,0,0-1.6-2.4,2.6,2.6,0,0,0-3,2.6,1.3,1.3,0,0,1-.6,1.1ZM11.3,19v-.2c-.4-.1-.9-.4-1.2-.3a32.8,32.8,0,0,0-3.1,2c-.2.2-.2.6-.3,1s.8.2,1,.1ZM8.8,12.5l-.2.2c.2.2.4.4.6.4h5.6c.2,0,.4-.3.6-.4l-.2-.2Z" fill="none"/><path d="M11.6,7.9v3.8h-1l-.4-2c-.6.1-.6.1-.4,2H8.5c-.2-1.1-.4-2.1-.7-3.2s-.3-.5-.6-.6A2.4,2.4,0,0,1,5.1,6,2.3,2.3,0,0,1,6.2,3.4a2.5,2.5,0,0,1,3,.3c0,.1.2.1.3.3S10.8,2.3,12,2.3s1.8.8,2.5,1.7l.6-.5a2.4,2.4,0,0,1,2.7-.1A2.3,2.3,0,0,1,18.9,6,2.3,2.3,0,0,1,17,7.9c-.6,0-.8.3-.9.8l-.6,2.8v.2H14.2c0-.7.1-1.3.1-2h-.5l-.4,2.1h-.9l-.3-3.8Z"/><path d="M4.2,10.7a2.6,2.6,0,0,1,2.7,2.6,1.1,1.1,0,0,0,.6,1.1l9,5.8c.3.1.6.2.7.4s.2.7,0,.8-.5.3-.8.3l-.7-.5-8.5-6a1.4,1.4,0,0,0-1.5-.3A2.5,2.5,0,0,1,2.3,13,1.8,1.8,0,0,1,4.2,10.7Z"/><path d="M12.7,16.8l3.8-2.4a1.3,1.3,0,0,0,.6-1.1,2.6,2.6,0,0,1,3-2.6,2,2,0,0,1,1.6,2.4,2.6,2.6,0,0,1-3.5,1.8,1.1,1.1,0,0,0-1.3.2c-.8.6-1.8,1.2-2.6,1.9S13.3,17.5,12.7,16.8Z"/><path d="M11.3,19,7.7,21.6c-.2.1-.8.2-1-.1s.1-.8.3-1a32.8,32.8,0,0,1,3.1-2c.3-.1.8.2,1.2.3Z"/><path d="M8.8,12.5h6.4l.2.2c-.2.1-.4.4-.6.4H9.2c-.2,0-.4-.2-.6-.4Z"/></svg>
