<svg id="Capa_1" data-name="Capa 1" xmlns="http://www.w3.org/2000/svg" height="54px" viewBox="0 0 24 24" width="54px" fill="#8cccce"><title>iconos</title><path d="M21,8.2c-.6-.9-1.6-2.1-2.7-2S17.5,4.9,17,3.9s-1.8-2-2.2-1.3-.1.5.4,1.8c-.4-.7-.8-1.4-1.4-1.6s-1.2.1-.5,1.7,1.4,3.7,1.3,4-.1.4-.4.3A13.4,13.4,0,0,0,9.6,7.7,6,6,0,0,0,3.5,12a12,12,0,0,0-.6,4.1C2.4,15.6,1.8,15,1.5,15s-.6.3-.6,1a4.5,4.5,0,0,0,1.8,2.8.6.6,0,0,0,.8,0h.2l1.2,1.1c1.1,1.4.9,1.1,5.7,1.9a1.3,1.3,0,0,0,1-.5,1.2,1.2,0,0,0-.6-1.4l-.6-.4a24.8,24.8,0,0,1,4.7.8,2.6,2.6,0,0,0,2.1,1.3c.5,0,.8-.1,1-.5s-.6-1.3-1.1-1.6a1.9,1.9,0,0,1-.7-1h.1a6.8,6.8,0,0,0,1.9-1.9,4.8,4.8,0,0,0,.9-2.4,4.7,4.7,0,0,0,2.2-.9c.8-.6,1.3-1.2,1.3-1.9S22,9.5,21,8.2ZM18.5,9.8a.8.8,0,0,1,0-1.6.8.8,0,0,1,0,1.6Z"/></svg>
