<svg id="Capa_1" data-name="Capa 1" xmlns="http://www.w3.org/2000/svg" height="54px" viewBox="0 0 24 24" width="54px" fill="#000000"><title>iconos</title><path d="M12.3,6.2A17.4,17.4,0,0,0,9.1,5.1a5.6,5.6,0,0,1-4.2-2q-.5-.6-.9,0a3.3,3.3,0,0,0,.5,4.8,16.5,16.5,0,0,0,3.6,2.2c2,.8,2.7,2,2,4l-.6,2,2.3.9a.4.4,0,0,0,.5,0l2.3-.9a10.4,10.4,0,0,0-.6-1.6c-.7-2.1.1-3.6,2.1-4.5a13.6,13.6,0,0,0,3.5-2.1,3.2,3.2,0,0,0,.6-4.6c-.4-.6-.7-.7-1.2-.1A4.5,4.5,0,0,1,15.6,5,4.6,4.6,0,0,0,12.3,6.2Z" fill="#fff"/><path d="M1.2,19.2c1.6-1.4,2.7-1.4,4.4-.2a1.5,1.5,0,0,0,1.6,0c1.5-1.2,2.5-1.2,4-.1a1.2,1.2,0,0,0,1.7,0c1.4-1,2.6-1.1,3.9,0a1.3,1.3,0,0,0,1.8-.1,3,3,0,0,1,3.8,0c.4.4.7.8.3,1.4a.9.9,0,0,1-1.4.1,1.3,1.3,0,0,0-1.7.2,2.7,2.7,0,0,1-3.8-.1,1.3,1.3,0,0,0-1.8.1,2.8,2.8,0,0,1-3.9-.1,1.3,1.3,0,0,0-1.8.1,2.9,2.9,0,0,1-3.8,0,1.2,1.2,0,0,0-1.7-.1c-.6.4-1.1.1-1.6-.3A1.4,1.4,0,0,1,1.2,19.2Z"/><path d="M12.3,6.2A4.6,4.6,0,0,1,15.6,5,4.5,4.5,0,0,0,19,3.2c.5-.6.8-.5,1.2.1a3.2,3.2,0,0,1-.6,4.6A13.6,13.6,0,0,1,16.1,10c-2,.9-2.8,2.4-2.1,4.5a10.4,10.4,0,0,1,.6,1.6l-2.3.9a.4.4,0,0,1-.5,0l-2.3-.9.6-2c.7-2,0-3.2-2-4A16.5,16.5,0,0,1,4.5,7.9,3.3,3.3,0,0,1,4,3.1q.4-.6.9,0a5.6,5.6,0,0,0,4.2,2A17.4,17.4,0,0,1,12.3,6.2Z"/></svg>
