<svg id="Capa_1" data-name="Capa 1" xmlns="http://www.w3.org/2000/svg" height="54px" viewBox="0 0 24 24" width="54px" fill="#000000"><title>iconos</title><path d="M11.2,2.3h1.6a4,4,0,0,1,2.8,3.5c2.2-.7,3.8-.3,4.7,1.3s.7,3.1-1,4.9c1.6,1.7,2,3.2,1.2,4.7a4.6,4.6,0,0,1-1.6,1.5,3.2,3.2,0,0,1-3.3.1c-.6,2.3-1.7,3.4-3.3,3.4a5.4,5.4,0,0,1-2.2-.5,3.7,3.7,0,0,1-1.7-2.9c-2.2.7-3.8.2-4.8-1.4S3,13.8,4.7,12C3.1,10.3,2.6,8.8,3.6,7.3A4.3,4.3,0,0,1,5.1,5.8a3.5,3.5,0,0,1,3.3,0A4,4,0,0,1,11.2,2.3Zm4,9.7a3.1,3.1,0,0,0-3.1-3.2A3.2,3.2,0,0,0,8.8,12a3.2,3.2,0,1,0,6.4,0Z"/><path d="M15.2,12a3.2,3.2,0,1,1-3.1-3.2A3.1,3.1,0,0,1,15.2,12Z" fill="none"/></svg>
