<svg id="Capa_1" data-name="Capa 1" xmlns="http://www.w3.org/2000/svg" height="54px" viewBox="0 0 24 24" width="54px" fill="#8cccce"><title>iconos</title><path d="M18,8h.7a.6.6,0,0,0,.6-.3.6.6,0,0,0,0-.6c-1-1.5-1.9-3-2.8-4.5a.6.6,0,0,0-1,0c-1,1.5-1.9,3-2.8,4.5a.6.6,0,0,0,.5.9H14L12.7,9.9l.8,1.3a1.3,1.3,0,0,1,.1,1.2,2.1,2.1,0,0,1-.6,1v.2l1.4,1.9a1.7,1.7,0,0,1,.3,1v.6h6.4a.6.6,0,0,0,.5-.7l-.2-.3-2.4-3.3v-.2h.9a.6.6,0,0,0,.6-.7l-.2-.3c-.7-1.1-1.4-2.3-2.2-3.4Z" fill="#fff"/><path d="M2.3,16.4l1.5-2.1L5,12.6H4.1a.6.6,0,0,1-.6-.7l.2-.3A39.6,39.6,0,0,1,5.9,8.2V8H5.3c-.6,0-.9-.4-.6-.9s1.9-3,2.8-4.5a.6.6,0,0,1,1,0l2.8,4.5a.7.7,0,0,1,.1.6l-.6.3H10l.2.2,2.2,3.4a.8.8,0,0,1,.2.5.6.6,0,0,1-.6.5h-.9l2.4,3.4h.1c.2.4,0,.9-.4.9H3.1a.8.8,0,0,1-.8-.4Z"/><path d="M2.3,21a.8.8,0,0,1,.7-.5H6.9V18.3H9.2v2.2h5.6V18.3h2.3v2.3h4c.4,0,.7.3.6.6a.7.7,0,0,1-.4.5H2.7l-.4-.4Z"/><path d="M18,8v.2c.8,1.1,1.5,2.3,2.2,3.4l.2.3a.6.6,0,0,1-.6.7H19v.2l2.4,3.3.2.3a.6.6,0,0,1-.5.7H14.8v-.6a1.7,1.7,0,0,0-.3-1l-1.4-1.9v-.2a2.1,2.1,0,0,0,.6-1,1.3,1.3,0,0,0-.1-1.2l-.8-1.3L14,8h-.8a.6.6,0,0,1-.5-.9c.9-1.5,1.8-3,2.8-4.5a.6.6,0,0,1,1,0c.9,1.5,1.8,3,2.8,4.5a.6.6,0,0,1,0,.6.6.6,0,0,1-.6.3Z"/></svg>
