<svg id="Capa_1" data-name="Capa 1" xmlns="http://www.w3.org/2000/svg" height="54px" viewBox="0 0 24 24" width="54px" fill="#669acc"><title>iconos</title><path d="M22.5,8.4V18.6A2.6,2.6,0,0,1,20,20.4H4a2.4,2.4,0,0,1-2.5-2.6V9.2A2.6,2.6,0,0,1,3.8,6.5H5.2a1.4,1.4,0,0,0,1.6-.9L7.2,5A2.7,2.7,0,0,1,9.8,3.6c1.3,0,2.7.1,4.1,0A2.9,2.9,0,0,1,17,5.3a1.9,1.9,0,0,0,2.2,1.2A2.8,2.8,0,0,1,22.5,8.4Zm-4.9,4.3a5.6,5.6,0,0,0-11.2,0A5.5,5.5,0,0,0,12,18.3,5.5,5.5,0,0,0,17.6,12.7Zm1.6-2.6c.6,0,1.1-.1,1.1-.8s-.6-.7-1.1-.7-1.2,0-1.2.7S18.6,10.1,19.2,10.1Z"/><path d="M17.6,12.7A5.5,5.5,0,0,1,12,18.3a5.5,5.5,0,0,1-5.6-5.6,5.6,5.6,0,0,1,11.2,0Zm-8.7,0a3,3,0,0,0,3,3.1,3,3,0,0,0,3.2-3.1,3,3,0,0,0-3-3.1A3,3,0,0,0,8.9,12.7Z" fill="#fff"/><path d="M19.2,10.1c-.6,0-1.2,0-1.2-.8s.6-.7,1.2-.7,1.1.1,1.1.7S19.8,10.1,19.2,10.1Z" fill="#fff"/><path d="M8.9,12.7a3,3,0,0,1,3.2-3.1,3,3,0,0,1,3,3.1,3,3,0,0,1-3.2,3.1A3,3,0,0,1,8.9,12.7Z"/></svg>
