<svg id="Capa_1" data-name="Capa 1" xmlns="http://www.w3.org/2000/svg" height="54px" viewBox="0 0 24 24" width="54px" fill="#000000"><title>iconos</title><path d="M18.9,20.2a2,2,0,0,0-.7-2l-4.6-3.4a.6.6,0,0,0-.6,0L8.5,18.2c-.4.2-.5.7-.8,1.1a5.2,5.2,0,0,1,1.3.6,1.4,1.4,0,0,0,1.5,0,2.6,2.6,0,0,1,3.1,0,1.4,1.4,0,0,0,1.6-.1,2.8,2.8,0,0,1,2.9,0A2,2,0,0,0,18.9,20.2ZM17.6,6.6c-.8.8-1.7,1.3-2,2.3A6.7,6.7,0,0,1,14.3,11l-.6.3c-.6.1-1.3,0-1.7.4s-3,2.5-4.5,3.8v.3L11,14.1l.3,1.2,1.3-.8a1.2,1.2,0,0,1,1.4,0l1.7,1v-.4a4.4,4.4,0,0,1,1.1-4.7C17.7,9.4,17.6,8.1,17.6,6.6Zm1.3,15h.3l2.3-.9a.6.6,0,0,0,.1-.4.5.5,0,0,0-.4-.3l-1.2.3a1.7,1.7,0,0,1-2.1.1,2,2,0,0,0-2.5,0,1.8,1.8,0,0,1-2.1,0,2,2,0,0,0-2.5,0,1.7,1.7,0,0,1-2,0,2.1,2.1,0,0,0-2.6,0,1.8,1.8,0,0,1-2.1,0L3,20l-.5.3.4.5,1,.4a2.3,2.3,0,0,0,2.6-.1,1.7,1.7,0,0,1,1.9,0,2.3,2.3,0,0,0,2.7,0,1.7,1.7,0,0,1,1.9,0,2.2,2.2,0,0,0,2.7,0,1.7,1.7,0,0,1,1.9,0A2.9,2.9,0,0,0,18.9,21.6Zm-5-13.9a1.7,1.7,0,0,0-2.2.1,1.8,1.8,0,0,0-.3,2.1ZM6.4,14.2c-1.6.3-1.8.5-1.5,1.4Zm9.7-8.4,1.3-1.2C16.3,4.4,16.1,4.7,16.1,5.8ZM13,10.6a1.5,1.5,0,0,0,1.6-1.3Z" fill="#fff"/><path d="M1.3,18.5l.5-.5.9-.7c.3-.3.5-.7,1-.4s.4-.1.6-.2l14-12.3c.1-.1.3-.2.3-.3s1.1-1.5,1.7-2.2.8-.1,1,.2.8.7.3,1.2-.9,1.1-1.5,1.3c-2.5.7-3.8,2.9-5.7,4.3s-3.7,3.2-5.6,4.9L5.2,16.9a2.5,2.5,0,0,0-.8,1.2c-.2.8-1.5,1.4-2.2,1.6H1.7l-.4-.5A.6.6,0,0,1,1.3,18.5Z"/><path d="M18.9,20.2a2,2,0,0,1-.8-.4,2.8,2.8,0,0,0-2.9,0,1.4,1.4,0,0,1-1.6.1,2.6,2.6,0,0,0-3.1,0,1.4,1.4,0,0,1-1.5,0,5.2,5.2,0,0,0-1.3-.6c.3-.4.4-.9.8-1.1L13,14.8a.6.6,0,0,1,.6,0l4.6,3.4A2,2,0,0,1,18.9,20.2Z"/><path d="M17.6,6.6c0,1.5.1,2.8-.8,3.8a4.4,4.4,0,0,0-1.1,4.7v.4l-1.7-1a1.2,1.2,0,0,0-1.4,0l-1.3.8L11,14.1,7.6,15.8v-.3c1.5-1.3,2.9-2.6,4.5-3.8s1.1-.3,1.7-.4l.6-.3a6.7,6.7,0,0,0,1.3-2.1C15.9,7.9,16.8,7.4,17.6,6.6Z"/><path d="M18.9,21.7l-1.3-.6a1.7,1.7,0,0,0-1.9,0,2.2,2.2,0,0,1-2.7,0,1.7,1.7,0,0,0-1.9,0,2.3,2.3,0,0,1-2.7,0,1.7,1.7,0,0,0-1.9,0,2.3,2.3,0,0,1-2.6.1l-1-.4-.4-.5L3,20l1.1.4a1.8,1.8,0,0,0,2.1,0,2.1,2.1,0,0,1,2.6,0,1.7,1.7,0,0,0,2,0,2,2,0,0,1,2.5,0,1.8,1.8,0,0,0,2.1,0,2,2,0,0,1,2.5,0,1.7,1.7,0,0,0,2.1-.1l1.2-.3a.5.5,0,0,1,.4.3.6.6,0,0,1-.1.4Z"/><path d="M13.9,7.7,11.4,9.9a1.8,1.8,0,0,1,.3-2.1A1.7,1.7,0,0,1,13.9,7.7Z"/><path d="M6.4,14.2,4.9,15.6C4.6,14.7,4.8,14.5,6.4,14.2Z"/><path d="M16.1,5.8c0-1.1.2-1.4,1.3-1.2Z"/><path d="M13,10.6l1.6-1.3A1.5,1.5,0,0,1,13,10.6Z"/></svg>
