<svg id="Capa_1" data-name="Capa 1" xmlns="http://www.w3.org/2000/svg" height="54px" viewBox="0 0 24 24" width="54px" fill="#669acc"><title>iconos</title><path d="M19.2,16.3h2.3c.9,0,1.2-.4.8-1.2-1.7-4-3.5-8-5.3-11.9-.2-.4-.7-.9-1.1-.9a1.8,1.8,0,0,0-1.2.9C14,4.5,13.5,6,12.9,7.4a1.4,1.4,0,0,0,0,.9c1,2.5,2.1,4.9,3.1,7.4a.9.9,0,0,0,.9.6Z" fill="#fff"/><path d="M1.6,20.6c1.1-2.4,2.2-4.8,3.2-7.2s2.1-4.6,3.1-7c.3-.7.7-1.2,1.5-1.2a1.4,1.4,0,0,1,1.4,1.2c2.1,4.6,4.1,9.2,6.1,13.8.6,1.2.3,1.5-.9,1.5H2.8c-.4,0-1,0-1.2-.4S1.6,20.9,1.6,20.6Zm10.3-7.3h.2c0-.2.1-.4,0-.6-.7-1.8-1.5-3.6-2.3-5.3-.1-.2-.3-.4-.4-.3s-.3.2-.4.4l-1.8,4c-.1.2,0,.5,0,.7s.5,0,.6-.2.8-.3,1.1.2.6.5,1,.1.6-.2,1,.1Z"/><path d="M19.2,16.3H16.9a.9.9,0,0,1-.9-.6c-1-2.5-2.1-4.9-3.1-7.4a1.4,1.4,0,0,1,0-.9C13.5,6,14,4.5,14.7,3.2a1.8,1.8,0,0,1,1.2-.9c.4,0,.9.5,1.1.9,1.8,3.9,3.6,7.9,5.3,11.9.4.8.1,1.2-.8,1.2ZM13.8,8l.2.3c.8-.7,1.4-.7,1.9.3,1.1-1.4,1.4.5,2.5.4L16,3.7h-.3Z"/><path d="M11.9,13.3l-1-1c-.4-.3-.7-.4-1-.1s-.7.3-1-.1-.6-.5-1.1-.2-.4.2-.6.2-.1-.5,0-.7L9,7.4c.1-.2.3-.4.4-.4s.3.1.4.3c.8,1.7,1.6,3.5,2.3,5.3.1.2,0,.4,0,.6Z" fill="#fff"/><path d="M13.8,8l1.9-4.3H16L18.4,9c-1.1.1-1.4-1.8-2.5-.4-.5-1-1.1-1-1.9-.3Z" fill="#fff"/></svg>
