<svg id="Capa_1" data-name="Capa 1" xmlns="http://www.w3.org/2000/svg" height="54px" viewBox="0 0 24 24" width="54px" fill="#669acc"><title>iconos</title><path d="M12.6,21.6V16.1c2.3-.3,2.3-.3,3.5,1.5l.6,1.1,1.6,2.7,1-.6L16.4,16h3.5V14.9H4.1V16H7.5L4.7,20.8l.9.6.5-.7,2.5-4.2c.2-.2.4-.5.6-.5h2.2v5.6ZM9.2,8.5,4,13.7H14.4Zm3.4,1.6L16,13.5l.3.2h3.9l-4.3-6Z" fill="#fff"/><path d="M21.1,2.3V12.9l-5-6.8L11.9,9.3,9.3,6.5,3.1,12.8H2.9V2.3ZM6.8,6.3V4.6h-1V6.3Z"/><path d="M12.6,21.6H11.4V16H9.2c-.2,0-.4.3-.6.5L6.1,20.7l-.5.7-.9-.6L7.5,16H4.1V14.9H19.9V16H16.4l2.9,4.8-1,.6-1.6-2.7-.6-1.1c-1.2-1.8-1.2-1.8-3.5-1.5Z"/><path d="M9.2,8.5l5.2,5.2H4Z"/><path d="M12.6,10.1l3.3-2.4,4.3,6H16.3l-.3-.2Z"/><path d="M6.8,6.3h-1V4.6h1Z" fill="#fff"/></svg>
