<svg id="Capa_1" data-name="Capa 1" xmlns="http://www.w3.org/2000/svg" height="54px" viewBox="0 0 24 24" width="54px" fill="#8cccce"><title>iconos</title><path d="M15.6,5.6l-.9.9-.3.2-4,1.2a2,2,0,0,0-1.3,2.6l1.2,2.6a.4.4,0,0,1-.1.3L6.5,17.9c-.6.9-1.3,1.7-2,2.6a.6.6,0,0,0,.4,1.1c.3.1.5-.1.7-.3L9.8,16H10a4.9,4.9,0,0,0,2.4-.1,3.8,3.8,0,0,0,2.8-2.4h.1l1.3-.4v.2c.3,1,.7,1.9,1,2.9s.5.7.9.5a.6.6,0,0,0,.4-.9l-.9-2.8-.5-1.4h-.1l-4.3,1c-.1,0-.2,0-.2-.2L11.8,9.8a3.6,3.6,0,0,0-.4-.9h.2l3.6-1h.2l1.2-1.3Zm-1.9,5.6h.2l3.3-.8a.3.3,0,0,0,.3-.3.6.6,0,0,1,.2-.7l1-1.2,1-1.2-.9-1.2c-.8.9-1.6,1.7-2.3,2.6a1.4,1.4,0,0,1-1.1.7l-.5.2L13,9.7ZM8.5,4A1.6,1.6,0,0,0,6.9,5.6,1.6,1.6,0,0,0,8.5,7.2a1.6,1.6,0,0,0,1.6-1.6A1.5,1.5,0,0,0,8.5,4Zm7.6,10.7H16v6.2a.9.9,0,0,0,.3.6.6.6,0,0,0,.7.1.7.7,0,0,0,.4-.7c.1-.7,0-1.4.1-2.2a2.7,2.7,0,0,0-.3-1.2c-.3-.6-.5-1.3-.8-1.9Zm-5.7,2.4a10.4,10.4,0,0,1-.4,1l-.8,2.6a.6.6,0,0,0,.4.9.6.6,0,0,0,.9-.5c.5-1.3.9-2.6,1.3-3.9H10.4ZM17.3,5.6l.7-.7a.7.7,0,0,0-.1-.9.6.6,0,0,0-.9-.1l-.7.8Z" fill="#fff"/><path d="M14.4,1.7h.1a1.5,1.5,0,0,1,1.1,1.6,1.5,1.5,0,0,1-1.4,1.3,1.5,1.5,0,0,1-1.5-1.3,1.6,1.6,0,0,1,1.1-1.6h.6Z"/><path d="M15.6,5.6l1,.9L15.4,7.8h-.2l-3.6,1h-.2a3.6,3.6,0,0,1,.4.9L13,12.3c0,.2.1.2.2.2l4.3-1h.1l.5,1.4.9,2.8a.6.6,0,0,1-.4.9c-.4.2-.7,0-.9-.5s-.7-1.9-1-2.9v-.2l-1.3.4h-.1a3.8,3.8,0,0,1-2.8,2.4,4.9,4.9,0,0,1-2.4.1H9.8L5.6,21.3c-.2.2-.4.4-.7.3a.6.6,0,0,1-.4-1.1c.7-.9,1.4-1.7,2-2.6l3.7-4.5a.4.4,0,0,0,.1-.3L9.1,10.5a2,2,0,0,1,1.3-2.6l4-1.2.3-.2Z"/><path d="M13.7,11.2,13,9.7l1.9-.5.5-.2a1.4,1.4,0,0,0,1.1-.7c.7-.9,1.5-1.7,2.3-2.6l.9,1.2-1,1.2-1,1.2a.6.6,0,0,0-.2.7.3.3,0,0,1-.3.3l-3.3.8Z"/><path d="M8.5,4a1.5,1.5,0,0,1,1.6,1.6A1.6,1.6,0,0,1,8.5,7.2,1.6,1.6,0,0,1,6.9,5.6,1.6,1.6,0,0,1,8.5,4Z"/><path d="M16.1,14.7l.3.9c.3.6.5,1.3.8,1.9a2.7,2.7,0,0,1,.3,1.2c-.1.8,0,1.5-.1,2.2a.7.7,0,0,1-.4.7.6.6,0,0,1-.7-.1.9.9,0,0,1-.3-.6V14.7Z"/><path d="M10.4,17.1h1.4c-.4,1.3-.8,2.6-1.3,3.9a.6.6,0,0,1-.9.5.6.6,0,0,1-.4-.9l.8-2.6A10.4,10.4,0,0,0,10.4,17.1Z"/><path d="M17.3,5.6l-1-.9.7-.8a.6.6,0,0,1,.9.1.7.7,0,0,1,.1.9Z"/></svg>
