<svg id="Capa_1" data-name="Capa 1" xmlns="http://www.w3.org/2000/svg" height="54px" viewBox="0 0 24 24" width="54px" fill="#8cccce"><title>iconos</title><path d="M17.3,8.9V7.4H17l-.3,1.8c-1.2.3-2.2.1-2.7-1.1a11.9,11.9,0,0,0-.9-1.5c-.4-.5-.7-1-1.5-.9s-1.1.6-1.3,1.3C9.7,9.3,9,11.7,8.5,14.1a8.3,8.3,0,0,1-1.4,3.5l-1.2,2a.7.7,0,0,0,.2,1.1c.5.4.8.2,1.1-.2,1.2-2,3.2-3.5,3.3-6.1,1.1.9,2.1,1.7,2.1,3.3a15.4,15.4,0,0,0,.4,3c0,.5.2.9.8.9a.9.9,0,0,0,.8-1,7.6,7.6,0,0,1-.1-1.5,8.7,8.7,0,0,0-2.1-6.5,2.1,2.1,0,0,1-.3-.7l.6-2.7.2-.2c.7,1.9,2.1,1.7,3.6,1.4v.5l-1.2,10a2.2,2.2,0,0,0,.1.8h.3c0-.3.1-.6.1-.8L17,11a1.5,1.5,0,0,1,.3-.7l.7-.6ZM6.6,7.7c-.2,1.1-.5,1.9-.6,2.8s.5,1.2,1.4,1.3,1.2,0,1.5-.9.7-2.8,1.2-4.2.1-.8-.4-.9L9,5.6C7.1,5,7.1,5,6.6,6.9c0,.1-.1.2-.1.3A1.3,1.3,0,0,1,6.6,7.7Z" fill="#fff"/><path d="M17.3,8.9l.7.8-.7.6a1.5,1.5,0,0,0-.3.7l-1.2,9.9c0,.2-.1.5-.1.8h-.3a2.2,2.2,0,0,1-.1-.8l1.2-10v-.5c-1.5.3-2.9.5-3.6-1.4l-.2.2-.6,2.7a2.1,2.1,0,0,0,.3.7,8.7,8.7,0,0,1,2.1,6.5,7.6,7.6,0,0,0,.1,1.5.9.9,0,0,1-.8,1c-.6,0-.8-.4-.8-.9a15.4,15.4,0,0,1-.4-3c0-1.6-1-2.4-2.1-3.3-.1,2.6-2.1,4.1-3.3,6.1-.3.4-.6.6-1.1.2a.7.7,0,0,1-.2-1.1l1.2-2a8.3,8.3,0,0,0,1.4-3.5c.5-2.4,1.2-4.8,1.8-7.2.2-.7.6-1.3,1.3-1.3s1.1.4,1.5.9A11.9,11.9,0,0,1,14,8c.5,1.2,1.5,1.4,2.7,1.1L17,7.3h.4Z"/><path d="M6.6,7.7a1.3,1.3,0,0,0-.1-.5c0-.1.1-.2.1-.3C7.1,5,7.1,5,9,5.6l.7.2c.5.1.5.4.4.9s-.8,2.8-1.2,4.2-.4,1-1.5.9S5.9,11.2,6,10.5,6.4,8.8,6.6,7.7Z"/><path d="M13.2,5.2a1.5,1.5,0,0,0,1.5-1.5,1.5,1.5,0,0,0-1.5-1.5,1.5,1.5,0,0,0-1.5,1.5A1.5,1.5,0,0,0,13.2,5.2Z"/></svg>
