<svg id="Capa_1" data-name="Capa 1" xmlns="http://www.w3.org/2000/svg" height="54px" viewBox="0 0 24 24" width="54px" fill="#000000"><title>iconos</title><path d="M16,2.3a38.9,38.9,0,0,1,1.1,4.3,5.2,5.2,0,0,1-4.4,6.2h-.2v6.3l2.5.7a2.6,2.6,0,0,1,1.3,1c.4.5.1.9-.5.9H8.3c-.7,0-.9-.4-.5-1a2,2,0,0,1,1-.8l2.7-.8V12.8a5.6,5.6,0,0,1-3-1.4A4.8,4.8,0,0,1,6.9,6.7c.3-1.5.9-2.9,1.3-4.4ZM7.6,7.9h9L15.4,3.4c0-.1-.3-.2-.5-.2a54.2,54.2,0,0,0-5.7,0c-.2,0-.5.1-.5.3A12.9,12.9,0,0,0,7.6,7.9Z"/><path d="M7.6,7.9A12.9,12.9,0,0,1,8.7,3.5c0-.2.3-.3.5-.3a54.2,54.2,0,0,1,5.7,0c.2,0,.5.1.5.2l1.2,4.5Z" fill="none"/></svg>
