<svg id="Capa_1" data-name="Capa 1" xmlns="http://www.w3.org/2000/svg" height="54px" viewBox="0 0 24 24" width="54px" fill="#000000"><title>iconos</title><path d="M16,18.7h-.4a1.3,1.3,0,0,1-.8-.2c-.2,0-.8-.6-.8-1.8a9.8,9.8,0,0,1,.6-3.4h0l.2-.7.3-.9h0A27.4,27.4,0,0,0,15.6,7c0-.2-.2-.4-.3-.6h-.1l-.4-.5-.4-.4-.7-.7a3,3,0,0,1-.8-.8,2.3,2.3,0,0,1-.6-1.8.4.4,0,0,0-.1-.3h-.4a.4.4,0,0,0-.1.3A2.3,2.3,0,0,1,11.1,4a3,3,0,0,1-.8.8l-.7.7-.4.4-.4.5H8.7c-.1.2-.3.4-.3.6a27.4,27.4,0,0,0,.5,4.4h0l.3.9.2.7h0a9.8,9.8,0,0,1,.6,3.4c0,1.2-.6,1.8-.8,1.8a1.3,1.3,0,0,1-.8.2H8c-2,.2-2.2,1.2-2.2,1.6a1.7,1.7,0,0,0,.3.7,2,2,0,0,0,1.6.7h.4l1.7-.3h4.4l1.7.3h.4a2,2,0,0,0,1.6-.7,1.7,1.7,0,0,0,.3-.7C18.2,19.9,18,18.9,16,18.7Zm-3-7.9h-.1l-.2-.3a1.8,1.8,0,0,0,.8-1.6c0-1-.1-1.8-1.5-1.8s-1.5.8-1.5,1.8a1.8,1.8,0,0,0,.8,1.6l-.2.3H11c-.3,0-.7-.6-.8-.9a12.6,12.6,0,0,1-.4-2.2h0c0-.3.4-.8.4-.9l1.1-1.7.7-.9.7.9,1.1,1.7c0,.1.4.6.4.9h0a12.6,12.6,0,0,1-.4,2.2C13.7,10.2,13.3,10.8,13,10.8Z"/></svg>
